HIERARCHY
ROOT HipCenter
{
    OFFSET 0.0 0.0 -0.0
    CHANNELS 6 Xposition Yposition Zposition Zrotation Xrotation Yrotation
    JOINT Spine
    {
        OFFSET 0.0 10.822683334350586 0.0
        CHANNELS 3 Zrotation Xrotation Yrotation
        JOINT ShoulderCenter
        {
            OFFSET 0.0 39.29853439331055 0.0
            CHANNELS 3 Zrotation Xrotation Yrotation
            JOINT LeftShoulder
            {
                OFFSET 21.754745483398438 0.0 0.0
                CHANNELS 3 Zrotation Xrotation Yrotation
                JOINT LeftElbow
                {
                    OFFSET 29.95451545715332 0.0 0.0
                    CHANNELS 3 Zrotation Xrotation Yrotation
                    JOINT LeftWrist
                    {
                        OFFSET 29.429611206054688 0.0 0.0
                        CHANNELS 3 Zrotation Xrotation Yrotation
                        JOINT LeftHand
                        {
                            OFFSET 4.0628252029418945 0.0 0.0
                            CHANNELS 3 Zrotation Xrotation Yrotation
                            End Site
                            {
                                OFFSET 1.6251301765441895 0.0 0.0
                            }
                        }
                    }
                }
            }
            JOINT RightShoulder
            {
                OFFSET -21.754745483398438 0.0 0.0
                CHANNELS 3 Zrotation Xrotation Yrotation
                JOINT RightElbow
                {
                    OFFSET -29.95451545715332 0.0 0.0
                    CHANNELS 3 Zrotation Xrotation Yrotation
                    JOINT RightWrist
                    {
                        OFFSET -29.429611206054688 0.0 0.0
                        CHANNELS 3 Zrotation Xrotation Yrotation
                        JOINT RightHand
                        {
                            OFFSET -4.0628252029418945 0.0 0.0
                            CHANNELS 3 Zrotation Xrotation Yrotation
                            End Site
                            {
                                OFFSET -1.6251301765441895 0.0 0.0
                            }
                        }
                    }
                }
            }
            End Site
            {
                OFFSET 0.0 15.719412803649902 0.0
            }
        }
    }
    JOINT LeftHip
    {
        OFFSET 14.429569244384766 0.0 0.0
        CHANNELS 3 Zrotation Xrotation Yrotation
        JOINT LeftKnee
        {
            OFFSET 0.0 -42.358497619628906 0.0
            CHANNELS 3 Zrotation Xrotation Yrotation
            JOINT LeftAnkle
            {
                OFFSET 0.0 -45.988258361816406 0.0
                CHANNELS 3 Zrotation Xrotation Yrotation
                JOINT LeftFoot
                {
                    OFFSET 0.0 -12.064796447753906 0.0
                    CHANNELS 3 Zrotation Xrotation Yrotation
                    End Site
                    {
                        OFFSET 0.0 0.0 4.825918197631836
                    }
                }
            }
        }
    }
    JOINT RightHip
    {
        OFFSET -14.429569244384766 0.0 0.0
        CHANNELS 3 Zrotation Xrotation Yrotation
        JOINT RightKnee
        {
            OFFSET 0.0 -42.358497619628906 0.0
            CHANNELS 3 Zrotation Xrotation Yrotation
            JOINT RightAnkle
            {
                OFFSET 0.0 -45.988258361816406 0.0
                CHANNELS 3 Zrotation Xrotation Yrotation
                JOINT RightFoot
                {
                    OFFSET 0.0 -12.064796447753906 0.0
                    CHANNELS 3 Zrotation Xrotation Yrotation
                    End Site
                    {
                        OFFSET 0.0 0.0 4.825918197631836
                    }
                }
            }
        }
    }
}
MOTION
Frames: 10
Frame Time: 0.03333333333333333
-104.20000457763672 1.100000023841858 -36.0 -2.6754676711658143 6.392043131319784 15.32739111923796 -0.09653015480843952 0.04829300219227322 -0.0025607441863517294 -1.6494136514740323e-08 -6.994424977892425e-07 14.17157261166648 88.21400538244876 23.984232860143965 178.9718299585491 -8.104371779848651e-06 -1.8667953992959438e-06 30.979158508906316 -179.99999522110386 -60.53797395535186 -146.16829099668115 0.0 0.0 -1.5902773407317588e-15 -98.38100527626065 17.01215717169267 -173.93337540508054 -2.2770971020611694e-06 1.9380256591548744e-06 -36.66037094328208 -8.52480055908776e-07 -39.3084686282681 -33.17222093318184 6.3611093629270335e-15 -1.7655625192200634e-31 -3.1805546814635168e-15 -0.049422702315222576 -15.018670237911937 0.6332862851168382 14.14626001493079 45.81963113728776 -60.19149003538593 71.60949683215449 -67.04318838269863 113.42333502526395 0.0 0.0 -1.590277340731758e-15 5.323198640727455 -31.625918439756774 -11.88663550846313 -5.996295907799373 36.584249565618734 31.159512458458337 -73.49745315151551 -60.01398506980248 -110.98560981192354 0.0 0.0 -1.590277340731758e-15
-103.79999542236328 1.100000023841858 -38.80000305175781 -2.1210641115186815 7.381045778543017 16.593210842547695 -1.1604193045244366 -0.04470205739830769 0.0015687103363793361 -3.805156291012796e-08 2.988968760802043e-07 13.646142551884292 87.81937075455059 21.30237604273164 179.9283707776273 1.7277936887535965e-06 -2.991156769868415e-06 33.41930736738588 179.9999947567197 -58.60133719854497 -148.3886849476959 6.3611093629270335e-15 4.4139062980501586e-32 7.951386703658792e-16 -98.42910089773004 18.404137429989174 -173.8311940475911 -2.4819382863118027e-06 -8.579960847553047e-07 -36.25068562991404 4.957856462566484e-07 -37.46498854376902 -33.67678603924852 -1.7655625192200634e-31 3.1805546814635168e-15 6.3611093629270335e-15 -2.13022299075248 -13.500899283520498 -2.224710190399558 10.84400003790485 41.58741768249062 -52.021853757719754 88.5267548692261 -66.33373887057223 132.63460461753627 -3.180554681463516e-15 3.089734408635111e-31 -1.1131941385122306e-14 3.0952321286916646 -34.18905198204566 -14.926234540178388 -7.882340478071718 36.404501022432626 33.42977181080914 -70.63932414665388 -60.32139109759957 -109.83815964863892 6.361109362927033e-15 -5.5659706925611536e-15 -1.5902773407317578e-15
-103.5999984741211 1.2000000476837158 -41.80000305175781 -3.2094778386880627 7.967777076836222 16.94271144434543 -0.14581803100919039 0.11343312126740451 -0.004964248771806962 -2.598536528751879e-07 5.6079387220290125e-08 13.971324069527716 86.91081796806816 19.037416172983082 -178.61374862336453 4.1107309259762127e-07 1.7327712607693154e-06 34.64281905267412 179.99999202413719 -64.38438811458148 -147.52377058808494 6.3611093629270335e-15 0.0 0.0 -99.10146548924155 18.847548105656795 -174.42785316234153 -1.265377661582704e-06 -8.884201068550811e-07 -35.47278061171869 1.3260265601250156e-06 -40.35669198374531 -32.73681239966477 3.1805546814635164e-15 0.0 0.0 -2.4596345177873506 -13.755822679425743 -2.3038270602754376 9.609707108689081 38.26899117786639 -46.971726401758595 93.27869749983931 -64.59103701637184 139.00041898237674 -4.4139062980501586e-32 -1.5902773407317584e-15 -3.1805546814635168e-15 3.0693167344394636 -36.58131146951503 -17.44239758374226 -9.875100277298005 35.17514889267913 34.85555260615461 -62.32643853074391 -61.07726640331202 -102.93384211928803 0.0 6.361109362927033e-15 0.0
-103.30000305175781 1.4000000953674316 -44.70000076293945 -3.2397328719793688 9.097042527800243 16.654565719631428 -0.5961707999523421 -0.48304885329208597 0.01693880575550383 1.497245885315088e-07 -1.510554023820421e-07 14.529588497359232 87.32355661331765 16.049668518775402 -178.9161389181242 -2.3229199380138705e-06 -1.3051195921038686e-06 37.4194811787106 -179.99999140581153 -62.59111566916 -146.74260311999436 0.0 3.975693351829395e-16 0.0 -99.1372770541353 19.58080639118909 -174.8116202297727 6.248256388075737e-07 -1.9319434579811853e-06 -34.68076405670442 9.242606359074942e-08 -38.90500533477655 -33.141877279975176 1.5902773407317584e-15 -1.5902773407317584e-15 6.3611093629270335e-15 -3.09231896609516 -14.724347405384096 -2.742063695494294 8.124669913781705 35.639235433492544 -43.56081308356934 97.45965737138 -65.0906523820079 144.0215868899872 3.1805546814635176e-15 -8.827812596100317e-32 -3.1805546814635176e-15 2.195638526538035 -38.72761150265919 -18.762233635619538 -11.268121947007831 33.977610598804326 35.588415379792636 -60.10227238845894 -63.38165464998468 -102.17065508097978 3.1805546814635168e-15 -6.3611093629270335e-15 -1.5902773407317582e-15
-103.0999984741211 1.3000000715255737 -47.29999923706055 -3.7429721969383456 9.008675679344062 16.646399546078314 -0.39172076080940266 0.016323960006831353 -0.00047962066348804146 -2.503314055614803e-07 -1.0147481477945074e-06 14.563387467657964 87.9502516931792 13.390648739568224 -179.0139988169613 2.016889587920451e-06 -5.040534609356177e-06 39.69505380714248 -179.99999742767352 -57.042348409428605 -146.20033129999214 6.3611093629270335e-15 -3.975693351829396e-16 2.2069531490250793e-32 -98.95129513720426 19.600663103037856 -175.1589070192945 4.0689719546822775e-06 -5.094231859553835e-06 -34.70427992138783 -5.5354737732826585e-06 -38.87175755230049 -32.028304574986315 0.0 0.0 0.0 -2.8748439679619286 -15.722914905982936 -1.1699761571762433 8.682529427412726 34.27607806496219 -42.453249688039605 98.23726559434427 -68.34369557640773 144.95533160512718 -2.2069531490250793e-32 1.5902773407317584e-15 1.5902773407317584e-15 1.63891532935252 -40.04294137126063 -21.104094745686762 -13.60176501774849 34.89706219393156 38.82693636082189 -70.20254290015315 -67.41165617697257 -113.79567049616337 -3.1805546814635168e-15 6.361109362927033e-15 3.1805546814635168e-15
-102.9000015258789 1.2000000476837158 -50.0 -4.316002896189775 10.133851279363263 16.69918979425135 -0.3536643488734691 -1.321487709894711 0.034600736018425914 4.193129637610434e-07 -1.2288898433582783e-06 14.538689534839463 88.88625189292962 11.619941271840338 -179.65086916535603 -1.0816887512551184e-06 -2.322062685877979e-06 41.27810475547141 -179.99999979621174 -56.90242791423841 -146.33081998265592 6.3611093629270335e-15 4.4139062980501586e-32 7.951386703658792e-16 -98.67715362184924 19.059509862794343 -174.96290515236956 -5.780478863062732e-07 1.2633408466864575e-06 -35.16116617557922 3.8830399167758384e-06 -39.669905927321146 -33.218338289804095 -3.1805546814635168e-15 -8.827812596100317e-32 3.1805546814635168e-15 -3.533959803059075 -18.71155128743373 0.005267764988496262 9.927264271963297 34.68016940448229 -43.36826665395346 100.7227046559345 -68.15744036753837 147.46948753721577 -3.1805546814635164e-15 0.0 0.0 0.5609804272647074 -42.635484888100336 -22.89572861654097 -15.737421024418781 38.92832975979624 44.408957353970195 -80.35169683867748 -64.93282946880696 -123.82507425561525 3.1805546814635176e-15 -8.827812596100317e-32 -3.1805546814635176e-15
-102.60000610351562 1.2000000476837158 -52.29999923706055 -3.778181245736497 9.616979586472517 15.758110670739677 -0.843056660521316 -0.6469565189800879 0.013845022528101693 9.177943662634497e-08 -5.787277751451858e-07 15.381863695043839 89.72136518287581 10.66615888520995 -179.61006430126656 4.454224061031384e-08 -2.7450810579216404e-06 41.40185599232105 179.99999456845376 -55.128910479264476 -144.75753794292783 0.0 0.0 0.0 -98.41709694653179 18.361001740192037 -174.90219425007402 6.203171438087127e-06 9.35193872664385e-07 -35.92172727231098 -2.9246923985469075e-06 -43.63856506877342 -33.52454900090111 4.770832022195275e-15 1.5902773407317584e-15 -6.620859447075238e-32 -4.427868594032029 -19.76247264704456 1.5724715677591756 11.035257742863994 35.25655454501415 -44.762045826614866 98.15323507785266 -68.52477160559735 145.00149691554196 -6.3611093629270335e-15 -3.531125038440127e-31 6.3611093629270335e-15 -0.3637494680742657 -43.16197781114444 -24.3193703200537 -19.584450012369484 45.665636002160035 52.3888146807895 -83.99599945382114 -57.698693408298055 -126.1923584314559 -3.1805546814635164e-15 7.156248033292912e-15 3.1805546814635164e-15
-102.4000015258789 1.2000000476837158 -54.599998474121094 -3.7430123263925434 9.529133089169584 15.517711457383285 -0.8651226568240998 -1.1489219963033013 0.017303181259852404 -3.8310408941535176e-07 3.291491470005349e-07 15.40163940138384 90.15434338135373 11.899877022928875 179.9147233493659 -2.500460778019345e-06 -5.0807801292327375e-06 40.54097283478801 -179.9999937728983 -56.03509391582218 -145.81323394489368 -6.3611093629270335e-15 1.5902773407317584e-15 1.5902773407317584e-15 -98.19432217040554 18.03670629863206 -174.4889191457277 -2.2086405248342812e-06 -3.826848995311645e-06 -36.54455219691451 8.688547277148967e-07 -42.15447914496584 -32.667986182740236 1.590277340731758e-15 -4.770832022195275e-15 -9.54166404439055e-15 -4.9620806995191025 -21.108017189307525 2.3181729726111873 11.578973111306585 35.526450442862966 -44.42277416152023 97.05466296483733 -69.22612778052806 143.34687519721624 3.1805546814635168e-15 -1.7655625192200634e-31 -6.3611093629270335e-15 -1.2966906306914772 -43.59273142018388 -25.621731466866397 -24.705395577415928 53.0990535002774 62.142137583662624 -85.39419975862715 -49.87572611386643 -125.90732967408046 0.0 0.0 3.1805546814635176e-15
-102.19999694824219 1.3000000715255737 -56.69999694824219 -3.7429721781149348 8.486694816332145 14.586476293049104 -0.5470325103268071 -0.6302544606122956 0.008185551041696508 1.6625154139604712e-07 8.309126255311492e-07 16.086366869967485 90.3758175735669 14.220756791226895 179.7065437837339 -4.076787166059444e-06 4.515269629539218e-06 38.9519587059239 179.99999137619432 -61.06884476404369 -145.82088069982575 6.361109362927035e-15 -3.578124016646457e-15 1.5902773407317592e-15 -98.12633905707862 17.103659535265884 -174.64395237916318 4.1785521398134644e-06 -2.731857905908559e-06 -36.64384853569551 -2.3637533523462047e-06 -37.86682044382098 -32.18979007616799 1.5902773407317584e-15 8.827812596100317e-32 6.3611093629270335e-15 -4.839314660066693 -21.379985936993556 3.18370189635503 11.465430136189932 35.61173845681119 -43.73332830267662 94.89616341986556 -69.81839147346587 140.67089555573511 6.361109362927033e-15 -1.5902773407317582e-15 8.827812596100317e-32 -0.8104500753426285 -41.72205426647219 -24.678481335825442 -29.275480308330312 59.60100396414751 69.68339286214302 -83.91678845687984 -45.39857340531088 -120.47774722924348 1.5902773407317588e-15 7.951386703658794e-16 -3.1805546814635176e-15
-102.10000610351562 1.5 -58.70000076293945 -3.7429723469697795 7.9632904399793665 14.938012560690632 -0.35352710535783916 -1.0510031226652479 0.009964208500997463 3.1650428803784877e-07 9.17494973309311e-07 15.785451945239892 90.38999410428872 17.663897498397994 179.58704355541155 1.0920019827352505e-06 6.790799879316355e-06 36.19010134886599 -179.99999076546092 -62.86989666770208 -147.11771557182658 -6.361109362927032e-15 0.0 0.0 -97.99291077284323 16.276636705986807 -173.97319925681956 5.305149880971319e-06 -3.515585500930308e-06 -37.24436976291213 -6.595615059986222e-06 -39.01660122130225 -32.541023120125054 3.1805546814635168e-15 6.3611093629270335e-15 3.1805546814635168e-15 -4.786705703566041 -22.171507978015278 4.834378378645443 11.910160023203362 35.13618718291643 -43.65550870132076 91.46195418586045 -72.49808389951856 137.26547372293066 1.7655625192200634e-31 -6.3611093629270335e-15 3.1805546814635168e-15 -0.9376872004596628 -39.422555347351235 -23.82083939228603 -32.2651651295695 65.09183804263283 74.82982128976926 -80.4800469050174 -43.21587295509723 -110.8553382837444 1.5902773407317584e-15 4.4139062980501586e-32 3.1805546814635168e-15
